<svg xmlns="http://www.w3.org/2000/svg" xmlns:xlink="http://www.w3.org/1999/xlink" width="300" zoomAndPan="magnify" viewBox="0 0 224.87999 37.5" height="50" preserveAspectRatio="xMidYMid meet" version="1.0"><defs><g/></defs><g fill="#ffffff" fill-opacity="1"><g transform="translate(2.234859, 23.136825)"><g><path d="M 16.828125 0 L 0.796875 0 L 0.796875 -3.203125 L 7.21875 -3.203125 L 7.21875 -12.8125 L 0.796875 -12.8125 L 0.796875 -16.03125 L 16.828125 -16.03125 L 16.828125 -12.8125 L 10.421875 -12.8125 L 10.421875 -3.203125 L 16.828125 -3.203125 Z M 16.828125 0 "/></g></g></g><g fill="#ffffff" fill-opacity="1"><g transform="translate(19.865034, 23.136825)"><g><path d="M 4 0 L 0.796875 0 L 0.796875 -14.421875 C 0.796875 -14.859375 0.953125 -15.234375 1.265625 -15.546875 C 1.585938 -15.867188 1.96875 -16.03125 2.40625 -16.03125 C 2.84375 -16.03125 3.222656 -15.867188 3.546875 -15.546875 L 13.625 -5.46875 L 13.625 -16.03125 L 16.828125 -16.03125 L 16.828125 -1.609375 C 16.828125 -1.160156 16.671875 -0.78125 16.359375 -0.46875 C 16.046875 -0.15625 15.664062 0 15.21875 0 C 14.78125 0 14.398438 -0.160156 14.078125 -0.484375 L 4 -10.5625 Z M 4 0 "/></g></g></g><g fill="#ffffff" fill-opacity="1"><g transform="translate(37.495208, 23.136825)"><g><path d="M 4 0 L 0.796875 0 L 0.796875 -14.421875 C 0.796875 -14.859375 0.953125 -15.234375 1.265625 -15.546875 C 1.585938 -15.867188 1.96875 -16.03125 2.40625 -16.03125 C 2.84375 -16.03125 3.222656 -15.867188 3.546875 -15.546875 L 13.625 -5.46875 L 13.625 -16.03125 L 16.828125 -16.03125 L 16.828125 -1.609375 C 16.828125 -1.160156 16.671875 -0.78125 16.359375 -0.46875 C 16.046875 -0.15625 15.664062 0 15.21875 0 C 14.78125 0 14.398438 -0.160156 14.078125 -0.484375 L 4 -10.5625 Z M 4 0 "/></g></g></g><g fill="#ffffff" fill-opacity="1"><g transform="translate(55.125383, 23.136825)"><g><path d="M 13.625 0 L 4 0 C 3.414062 0 2.878906 -0.140625 2.390625 -0.421875 C 1.898438 -0.710938 1.507812 -1.101562 1.21875 -1.59375 C 0.9375 -2.082031 0.796875 -2.617188 0.796875 -3.203125 L 0.796875 -12.8125 C 0.796875 -13.40625 0.9375 -13.941406 1.21875 -14.421875 C 1.507812 -14.910156 1.898438 -15.300781 2.390625 -15.59375 C 2.878906 -15.882812 3.414062 -16.03125 4 -16.03125 L 13.625 -16.03125 C 14.207031 -16.03125 14.742188 -15.882812 15.234375 -15.59375 C 15.722656 -15.300781 16.109375 -14.910156 16.390625 -14.421875 C 16.679688 -13.941406 16.828125 -13.40625 16.828125 -12.8125 L 16.828125 -3.203125 C 16.828125 -2.628906 16.679688 -2.097656 16.390625 -1.609375 C 16.109375 -1.117188 15.722656 -0.726562 15.234375 -0.4375 C 14.753906 -0.144531 14.21875 0 13.625 0 Z M 4 -12.8125 L 4 -3.203125 L 13.625 -3.203125 L 13.625 -12.8125 Z M 4 -12.8125 "/></g></g></g><g fill="#ffffff" fill-opacity="1"><g transform="translate(72.755558, 23.136825)"><g><path d="M 8.8125 0 C 8.09375 0 7.425781 -0.253906 6.8125 -0.765625 L 1.40625 -5.40625 C 1 -5.769531 0.796875 -6.195312 0.796875 -6.6875 L 0.796875 -16.03125 L 4 -16.03125 L 4 -7.40625 L 8.8125 -3.265625 L 13.625 -7.40625 L 13.625 -16.03125 L 16.828125 -16.03125 L 16.8125 -6.6875 C 16.8125 -6.175781 16.613281 -5.75 16.21875 -5.40625 L 10.8125 -0.765625 C 10.226562 -0.253906 9.5625 0 8.8125 0 Z M 8.8125 0 "/></g></g></g><g fill="#ffffff" fill-opacity="1"><g transform="translate(90.385733, 23.136825)"><g><path d="M 4 -16.03125 L 13.625 -16.03125 C 14.207031 -16.03125 14.742188 -15.882812 15.234375 -15.59375 C 15.722656 -15.300781 16.109375 -14.910156 16.390625 -14.421875 C 16.679688 -13.941406 16.828125 -13.40625 16.828125 -12.8125 L 16.828125 0 L 13.625 0 L 13.625 -6.40625 L 4 -6.40625 L 4 0 L 0.796875 0 L 0.796875 -12.8125 C 0.796875 -13.40625 0.9375 -13.941406 1.21875 -14.421875 C 1.507812 -14.910156 1.898438 -15.300781 2.390625 -15.59375 C 2.878906 -15.882812 3.414062 -16.03125 4 -16.03125 Z M 4 -12.8125 L 4 -9.609375 L 13.625 -9.609375 L 13.625 -12.8125 Z M 4 -12.8125 "/></g></g></g><g fill="#ffffff" fill-opacity="1"><g transform="translate(108.015908, 23.136825)"><g><path d="M 16.828125 -16.03125 L 16.828125 -12.8125 L 10.421875 -12.8125 L 10.421875 0 L 7.21875 0 L 7.21875 -12.8125 L 0.796875 -12.8125 L 0.796875 -16.03125 Z M 16.828125 -16.03125 "/></g></g></g><g fill="#ffffff" fill-opacity="1"><g transform="translate(125.646083, 23.136825)"><g><path d="M 16.828125 0 L 0.796875 0 L 0.796875 -3.203125 L 7.21875 -3.203125 L 7.21875 -12.8125 L 0.796875 -12.8125 L 0.796875 -16.03125 L 16.828125 -16.03125 L 16.828125 -12.8125 L 10.421875 -12.8125 L 10.421875 -3.203125 L 16.828125 -3.203125 Z M 16.828125 0 "/></g></g></g><g fill="#ffffff" fill-opacity="1"><g transform="translate(143.276258, 23.136825)"><g><path d="M 4 0 L 0.796875 0 L 0.796875 -14.421875 C 0.796875 -14.859375 0.953125 -15.234375 1.265625 -15.546875 C 1.585938 -15.867188 1.96875 -16.03125 2.40625 -16.03125 C 2.84375 -16.03125 3.222656 -15.867188 3.546875 -15.546875 L 13.625 -5.46875 L 13.625 -16.03125 L 16.828125 -16.03125 L 16.828125 -1.609375 C 16.828125 -1.160156 16.671875 -0.78125 16.359375 -0.46875 C 16.046875 -0.15625 15.664062 0 15.21875 0 C 14.78125 0 14.398438 -0.160156 14.078125 -0.484375 L 4 -10.5625 Z M 4 0 "/></g></g></g><g fill="#ffffff" fill-opacity="1"><g transform="translate(160.906433, 23.136825)"><g><path d="M 16.828125 -16.03125 L 16.828125 -12.8125 L 4 -12.8125 L 4 -3.203125 L 13.625 -3.203125 L 13.625 -6.40625 L 7.21875 -6.40625 L 7.21875 -9.609375 L 16.828125 -9.609375 L 16.828125 -3.203125 C 16.828125 -2.628906 16.679688 -2.097656 16.390625 -1.609375 C 16.109375 -1.117188 15.722656 -0.726562 15.234375 -0.4375 C 14.753906 -0.144531 14.21875 0 13.625 0 L 4 0 C 3.414062 0 2.878906 -0.140625 2.390625 -0.421875 C 1.898438 -0.710938 1.507812 -1.101562 1.21875 -1.59375 C 0.9375 -2.082031 0.796875 -2.617188 0.796875 -3.203125 L 0.796875 -12.8125 C 0.796875 -13.40625 0.9375 -13.941406 1.21875 -14.421875 C 1.507812 -14.910156 1.898438 -15.300781 2.390625 -15.59375 C 2.878906 -15.882812 3.414062 -16.03125 4 -16.03125 Z M 16.828125 -16.03125 "/></g></g></g><g fill="#ffffff" fill-opacity="1"><g transform="translate(178.536608, 23.136825)"><g/></g></g><g fill="#ffffff" fill-opacity="1"><g transform="translate(187.351695, 23.136825)"><g><path d="M 4 -16.03125 L 13.625 -16.03125 C 14.207031 -16.03125 14.742188 -15.882812 15.234375 -15.59375 C 15.722656 -15.300781 16.109375 -14.910156 16.390625 -14.421875 C 16.679688 -13.941406 16.828125 -13.40625 16.828125 -12.8125 L 16.828125 0 L 13.625 0 L 13.625 -6.40625 L 4 -6.40625 L 4 0 L 0.796875 0 L 0.796875 -12.8125 C 0.796875 -13.40625 0.9375 -13.941406 1.21875 -14.421875 C 1.507812 -14.910156 1.898438 -15.300781 2.390625 -15.59375 C 2.878906 -15.882812 3.414062 -16.03125 4 -16.03125 Z M 4 -12.8125 L 4 -9.609375 L 13.625 -9.609375 L 13.625 -12.8125 Z M 4 -12.8125 "/></g></g></g><g fill="#ffffff" fill-opacity="1"><g transform="translate(204.981882, 23.136825)"><g><path d="M 16.828125 0 L 0.796875 0 L 0.796875 -3.203125 L 7.21875 -3.203125 L 7.21875 -12.8125 L 0.796875 -12.8125 L 0.796875 -16.03125 L 16.828125 -16.03125 L 16.828125 -12.8125 L 10.421875 -12.8125 L 10.421875 -3.203125 L 16.828125 -3.203125 Z M 16.828125 0 "/></g></g></g><g fill="#ffffff" fill-opacity="1"><g transform="translate(26.828595, 31.242625)"><g><path d="M 6.015625 0 L 1.765625 0 C 1.503906 0 1.265625 -0.0625 1.046875 -0.1875 C 0.835938 -0.3125 0.671875 -0.484375 0.546875 -0.703125 C 0.421875 -0.921875 0.359375 -1.160156 0.359375 -1.421875 L 0.359375 -5.65625 C 0.359375 -5.914062 0.421875 -6.148438 0.546875 -6.359375 C 0.671875 -6.578125 0.835938 -6.75 1.046875 -6.875 C 1.265625 -7.007812 1.503906 -7.078125 1.765625 -7.078125 L 6.015625 -7.078125 C 6.273438 -7.078125 6.507812 -7.007812 6.71875 -6.875 C 6.9375 -6.75 7.109375 -6.578125 7.234375 -6.359375 C 7.359375 -6.148438 7.421875 -5.914062 7.421875 -5.65625 L 7.421875 -1.421875 C 7.421875 -1.160156 7.359375 -0.921875 7.234375 -0.703125 C 7.109375 -0.492188 6.9375 -0.320312 6.71875 -0.1875 C 6.507812 -0.0625 6.273438 0 6.015625 0 Z M 1.765625 -5.65625 L 1.765625 -1.421875 L 6.015625 -1.421875 L 6.015625 -5.65625 Z M 1.765625 -5.65625 "/></g></g></g><g fill="#ffffff" fill-opacity="1"><g transform="translate(34.610218, 31.242625)"><g><path d="M 1.765625 0 L 0.359375 0 L 0.359375 -6.375 C 0.359375 -6.5625 0.425781 -6.722656 0.5625 -6.859375 C 0.695312 -7.003906 0.863281 -7.078125 1.0625 -7.078125 C 1.257812 -7.078125 1.425781 -7.003906 1.5625 -6.859375 L 6.015625 -2.421875 L 6.015625 -7.078125 L 7.421875 -7.078125 L 7.421875 -0.703125 C 7.421875 -0.515625 7.351562 -0.347656 7.21875 -0.203125 C 7.082031 -0.0664062 6.914062 0 6.71875 0 C 6.519531 0 6.351562 -0.0703125 6.21875 -0.21875 L 1.765625 -4.65625 Z M 1.765625 0 "/></g></g></g><g fill="#ffffff" fill-opacity="1"><g transform="translate(42.391842, 31.242625)"><g><path d="M 7.421875 -7.078125 L 7.421875 -5.65625 L 1.765625 -5.65625 L 1.765625 -4.25 L 7.421875 -4.25 L 7.421875 -2.828125 L 1.765625 -2.828125 L 1.765625 -1.421875 L 7.421875 -1.421875 L 7.421875 0 L 1.765625 0 C 1.503906 0 1.265625 -0.0625 1.046875 -0.1875 C 0.835938 -0.3125 0.671875 -0.484375 0.546875 -0.703125 C 0.421875 -0.921875 0.359375 -1.160156 0.359375 -1.421875 L 0.359375 -5.65625 C 0.359375 -5.914062 0.421875 -6.148438 0.546875 -6.359375 C 0.671875 -6.578125 0.835938 -6.75 1.046875 -6.875 C 1.265625 -7.007812 1.503906 -7.078125 1.765625 -7.078125 Z M 7.421875 -7.078125 "/></g></g></g><g fill="#ffffff" fill-opacity="1"><g transform="translate(50.173465, 31.242625)"><g/></g></g><g fill="#ffffff" fill-opacity="1"><g transform="translate(54.064282, 31.242625)"><g><path d="M 1.765625 -7.078125 L 6.015625 -7.078125 C 6.273438 -7.078125 6.507812 -7.007812 6.71875 -6.875 C 6.9375 -6.75 7.109375 -6.578125 7.234375 -6.359375 C 7.359375 -6.148438 7.421875 -5.914062 7.421875 -5.65625 L 7.421875 0 L 6.015625 0 L 6.015625 -2.828125 L 1.765625 -2.828125 L 1.765625 0 L 0.359375 0 L 0.359375 -5.65625 C 0.359375 -5.914062 0.421875 -6.148438 0.546875 -6.359375 C 0.671875 -6.578125 0.835938 -6.75 1.046875 -6.875 C 1.265625 -7.007812 1.503906 -7.078125 1.765625 -7.078125 Z M 1.765625 -5.65625 L 1.765625 -4.25 L 6.015625 -4.25 L 6.015625 -5.65625 Z M 1.765625 -5.65625 "/></g></g></g><g fill="#ffffff" fill-opacity="1"><g transform="translate(61.845905, 31.242625)"><g><path d="M 7.421875 0 L 1.765625 0 C 1.503906 0 1.265625 -0.0625 1.046875 -0.1875 C 0.835938 -0.3125 0.671875 -0.484375 0.546875 -0.703125 C 0.421875 -0.921875 0.359375 -1.160156 0.359375 -1.421875 L 0.359375 -7.078125 L 1.765625 -7.078125 L 1.765625 -1.421875 L 7.421875 -1.421875 Z M 7.421875 0 "/></g></g></g><g fill="#ffffff" fill-opacity="1"><g transform="translate(69.627528, 31.242625)"><g><path d="M 6.015625 0 L 1.765625 0 C 1.503906 0 1.265625 -0.0625 1.046875 -0.1875 C 0.835938 -0.3125 0.671875 -0.484375 0.546875 -0.703125 C 0.421875 -0.921875 0.359375 -1.160156 0.359375 -1.421875 L 0.359375 -5.65625 C 0.359375 -5.914062 0.421875 -6.148438 0.546875 -6.359375 C 0.671875 -6.578125 0.835938 -6.75 1.046875 -6.875 C 1.265625 -7.007812 1.503906 -7.078125 1.765625 -7.078125 L 6.015625 -7.078125 C 6.273438 -7.078125 6.507812 -7.007812 6.71875 -6.875 C 6.9375 -6.75 7.109375 -6.578125 7.234375 -6.359375 C 7.359375 -6.148438 7.421875 -5.914062 7.421875 -5.65625 L 7.421875 -1.421875 C 7.421875 -1.160156 7.359375 -0.921875 7.234375 -0.703125 C 7.109375 -0.492188 6.9375 -0.320312 6.71875 -0.1875 C 6.507812 -0.0625 6.273438 0 6.015625 0 Z M 1.765625 -5.65625 L 1.765625 -1.421875 L 6.015625 -1.421875 L 6.015625 -5.65625 Z M 1.765625 -5.65625 "/></g></g></g><g fill="#ffffff" fill-opacity="1"><g transform="translate(77.409152, 31.242625)"><g><path d="M 7.421875 -7.078125 L 7.421875 -5.65625 L 1.765625 -5.65625 L 1.765625 -1.421875 L 6.015625 -1.421875 L 6.015625 -2.828125 L 3.1875 -2.828125 L 3.1875 -4.25 L 7.421875 -4.25 L 7.421875 -1.421875 C 7.421875 -1.160156 7.359375 -0.921875 7.234375 -0.703125 C 7.109375 -0.492188 6.9375 -0.320312 6.71875 -0.1875 C 6.507812 -0.0625 6.273438 0 6.015625 0 L 1.765625 0 C 1.503906 0 1.265625 -0.0625 1.046875 -0.1875 C 0.835938 -0.3125 0.671875 -0.484375 0.546875 -0.703125 C 0.421875 -0.921875 0.359375 -1.160156 0.359375 -1.421875 L 0.359375 -5.65625 C 0.359375 -5.914062 0.421875 -6.148438 0.546875 -6.359375 C 0.671875 -6.578125 0.835938 -6.75 1.046875 -6.875 C 1.265625 -7.007812 1.503906 -7.078125 1.765625 -7.078125 Z M 7.421875 -7.078125 "/></g></g></g><g fill="#ffffff" fill-opacity="1"><g transform="translate(85.190775, 31.242625)"><g><path d="M 6.015625 0 L 1.765625 0 C 1.503906 0 1.265625 -0.0625 1.046875 -0.1875 C 0.835938 -0.3125 0.671875 -0.484375 0.546875 -0.703125 C 0.421875 -0.921875 0.359375 -1.160156 0.359375 -1.421875 L 0.359375 -5.65625 C 0.359375 -5.914062 0.421875 -6.148438 0.546875 -6.359375 C 0.671875 -6.578125 0.835938 -6.75 1.046875 -6.875 C 1.265625 -7.007812 1.503906 -7.078125 1.765625 -7.078125 L 6.015625 -7.078125 C 6.273438 -7.078125 6.507812 -7.007812 6.71875 -6.875 C 6.9375 -6.75 7.109375 -6.578125 7.234375 -6.359375 C 7.359375 -6.148438 7.421875 -5.914062 7.421875 -5.65625 L 7.421875 -1.421875 C 7.421875 -1.160156 7.359375 -0.921875 7.234375 -0.703125 C 7.109375 -0.492188 6.9375 -0.320312 6.71875 -0.1875 C 6.507812 -0.0625 6.273438 0 6.015625 0 Z M 1.765625 -5.65625 L 1.765625 -1.421875 L 6.015625 -1.421875 L 6.015625 -5.65625 Z M 1.765625 -5.65625 "/></g></g></g><g fill="#ffffff" fill-opacity="1"><g transform="translate(92.972398, 31.242625)"><g><path d="M 7.421875 -5.65625 L 7.421875 -4.25 C 7.421875 -3.988281 7.359375 -3.75 7.234375 -3.53125 C 7.109375 -3.3125 6.9375 -3.140625 6.71875 -3.015625 C 6.507812 -2.890625 6.273438 -2.828125 6.015625 -2.828125 L 4.59375 -2.828125 L 6.015625 -1.421875 L 7.421875 -1.421875 L 7.421875 0 L 5.734375 0 C 5.535156 0 5.363281 -0.0703125 5.21875 -0.21875 L 2.59375 -2.828125 L 1.765625 -2.828125 L 1.765625 0 L 0.359375 0 L 0.359375 -7.078125 L 6.015625 -7.078125 C 6.273438 -7.078125 6.507812 -7.007812 6.71875 -6.875 C 6.9375 -6.75 7.109375 -6.578125 7.234375 -6.359375 C 7.359375 -6.148438 7.421875 -5.914062 7.421875 -5.65625 Z M 6.015625 -5.65625 L 1.765625 -5.65625 L 1.765625 -4.25 L 6.015625 -4.25 Z M 6.015625 -5.65625 "/></g></g></g><g fill="#ffffff" fill-opacity="1"><g transform="translate(100.754021, 31.242625)"><g><path d="M 7.421875 0 L 0.359375 0 L 0.359375 -1.421875 L 3.1875 -1.421875 L 3.1875 -5.65625 L 0.359375 -5.65625 L 0.359375 -7.078125 L 7.421875 -7.078125 L 7.421875 -5.65625 L 4.59375 -5.65625 L 4.59375 -1.421875 L 7.421875 -1.421875 Z M 7.421875 0 "/></g></g></g><g fill="#ffffff" fill-opacity="1"><g transform="translate(108.535644, 31.242625)"><g><path d="M 7.421875 -7.078125 L 7.421875 -5.65625 L 4.59375 -5.65625 L 4.59375 0 L 3.1875 0 L 3.1875 -5.65625 L 0.359375 -5.65625 L 0.359375 -7.078125 Z M 7.421875 -7.078125 "/></g></g></g><g fill="#ffffff" fill-opacity="1"><g transform="translate(116.317268, 31.242625)"><g><path d="M 6.015625 -4.25 L 6.015625 -7.078125 L 7.421875 -7.078125 L 7.421875 0 L 6.015625 0 L 6.015625 -2.828125 L 1.765625 -2.828125 L 1.765625 0 L 0.359375 0 L 0.359375 -7.078125 L 1.765625 -7.078125 L 1.765625 -4.25 Z M 6.015625 -4.25 "/></g></g></g><g fill="#ffffff" fill-opacity="1"><g transform="translate(124.098891, 31.242625)"><g><path d="M 1.765625 -7.078125 L 6.015625 -7.078125 C 6.273438 -7.078125 6.507812 -7.007812 6.71875 -6.875 C 6.9375 -6.75 7.109375 -6.578125 7.234375 -6.359375 C 7.359375 -6.148438 7.421875 -5.914062 7.421875 -5.65625 L 7.421875 0 L 6.015625 0 L 6.015625 -5.65625 L 4.59375 -5.65625 L 4.59375 0 L 3.1875 0 L 3.1875 -5.65625 L 1.765625 -5.65625 L 1.765625 0 L 0.359375 0 L 0.359375 -5.65625 C 0.359375 -5.914062 0.421875 -6.148438 0.546875 -6.359375 C 0.671875 -6.578125 0.835938 -6.75 1.046875 -6.875 C 1.265625 -7.007812 1.503906 -7.078125 1.765625 -7.078125 Z M 1.765625 -7.078125 "/></g></g></g><g fill="#ffffff" fill-opacity="1"><g transform="translate(131.880514, 31.242625)"><g/></g></g><g fill="#ffffff" fill-opacity="1"><g transform="translate(135.771331, 31.242625)"><g><path d="M 1.765625 -7.078125 L 6.015625 -7.078125 C 6.273438 -7.078125 6.507812 -7.007812 6.71875 -6.875 C 6.9375 -6.75 7.109375 -6.578125 7.234375 -6.359375 C 7.359375 -6.148438 7.421875 -5.914062 7.421875 -5.65625 L 7.421875 0 L 6.015625 0 L 6.015625 -2.828125 L 1.765625 -2.828125 L 1.765625 0 L 0.359375 0 L 0.359375 -5.65625 C 0.359375 -5.914062 0.421875 -6.148438 0.546875 -6.359375 C 0.671875 -6.578125 0.835938 -6.75 1.046875 -6.875 C 1.265625 -7.007812 1.503906 -7.078125 1.765625 -7.078125 Z M 1.765625 -5.65625 L 1.765625 -4.25 L 6.015625 -4.25 L 6.015625 -5.65625 Z M 1.765625 -5.65625 "/></g></g></g><g fill="#ffffff" fill-opacity="1"><g transform="translate(143.552954, 31.242625)"><g><path d="M 7.421875 -7.078125 L 7.421875 -5.65625 L 4.59375 -5.65625 L 4.59375 0 L 3.1875 0 L 3.1875 -5.65625 L 0.359375 -5.65625 L 0.359375 -7.078125 Z M 7.421875 -7.078125 "/></g></g></g><g fill="#ffffff" fill-opacity="1"><g transform="translate(151.334578, 31.242625)"><g/></g></g><g fill="#ffffff" fill-opacity="1"><g transform="translate(155.225395, 31.242625)"><g><path d="M 1.765625 -7.078125 L 6.015625 -7.078125 C 6.273438 -7.078125 6.507812 -7.007812 6.71875 -6.875 C 6.9375 -6.75 7.109375 -6.578125 7.234375 -6.359375 C 7.359375 -6.148438 7.421875 -5.914062 7.421875 -5.65625 L 7.421875 0 L 6.015625 0 L 6.015625 -2.828125 L 1.765625 -2.828125 L 1.765625 0 L 0.359375 0 L 0.359375 -5.65625 C 0.359375 -5.914062 0.421875 -6.148438 0.546875 -6.359375 C 0.671875 -6.578125 0.835938 -6.75 1.046875 -6.875 C 1.265625 -7.007812 1.503906 -7.078125 1.765625 -7.078125 Z M 1.765625 -5.65625 L 1.765625 -4.25 L 6.015625 -4.25 L 6.015625 -5.65625 Z M 1.765625 -5.65625 "/></g></g></g><g fill="#ffffff" fill-opacity="1"><g transform="translate(163.007018, 31.242625)"><g/></g></g><g fill="#ffffff" fill-opacity="1"><g transform="translate(166.897835, 31.242625)"><g><path d="M 7.421875 -7.078125 L 7.421875 -5.65625 L 4.59375 -5.65625 L 4.59375 0 L 3.1875 0 L 3.1875 -5.65625 L 0.359375 -5.65625 L 0.359375 -7.078125 Z M 7.421875 -7.078125 "/></g></g></g><g fill="#ffffff" fill-opacity="1"><g transform="translate(174.679459, 31.242625)"><g><path d="M 7.421875 0 L 0.359375 0 L 0.359375 -1.421875 L 3.1875 -1.421875 L 3.1875 -5.65625 L 0.359375 -5.65625 L 0.359375 -7.078125 L 7.421875 -7.078125 L 7.421875 -5.65625 L 4.59375 -5.65625 L 4.59375 -1.421875 L 7.421875 -1.421875 Z M 7.421875 0 "/></g></g></g><g fill="#ffffff" fill-opacity="1"><g transform="translate(182.461082, 31.242625)"><g><path d="M 1.765625 -7.078125 L 6.015625 -7.078125 C 6.273438 -7.078125 6.507812 -7.007812 6.71875 -6.875 C 6.9375 -6.75 7.109375 -6.578125 7.234375 -6.359375 C 7.359375 -6.148438 7.421875 -5.914062 7.421875 -5.65625 L 7.421875 0 L 6.015625 0 L 6.015625 -5.65625 L 4.59375 -5.65625 L 4.59375 0 L 3.1875 0 L 3.1875 -5.65625 L 1.765625 -5.65625 L 1.765625 0 L 0.359375 0 L 0.359375 -5.65625 C 0.359375 -5.914062 0.421875 -6.148438 0.546875 -6.359375 C 0.671875 -6.578125 0.835938 -6.75 1.046875 -6.875 C 1.265625 -7.007812 1.503906 -7.078125 1.765625 -7.078125 Z M 1.765625 -7.078125 "/></g></g></g><g fill="#ffffff" fill-opacity="1"><g transform="translate(190.242705, 31.242625)"><g><path d="M 7.421875 -7.078125 L 7.421875 -5.65625 L 1.765625 -5.65625 L 1.765625 -4.25 L 7.421875 -4.25 L 7.421875 -2.828125 L 1.765625 -2.828125 L 1.765625 -1.421875 L 7.421875 -1.421875 L 7.421875 0 L 1.765625 0 C 1.503906 0 1.265625 -0.0625 1.046875 -0.1875 C 0.835938 -0.3125 0.671875 -0.484375 0.546875 -0.703125 C 0.421875 -0.921875 0.359375 -1.160156 0.359375 -1.421875 L 0.359375 -5.65625 C 0.359375 -5.914062 0.421875 -6.148438 0.546875 -6.359375 C 0.671875 -6.578125 0.835938 -6.75 1.046875 -6.875 C 1.265625 -7.007812 1.503906 -7.078125 1.765625 -7.078125 Z M 7.421875 -7.078125 "/></g></g></g></svg>